<svg xmlns="http://www.w3.org/2000/svg" viewBox="0 0 120 120"><defs><linearGradient id="g" x1="0" y1="0" x2="1" y2="1"><stop offset="0" stop-color="#d8232f"/><stop offset="1" stop-color="#0b0b0c"/></linearGradient></defs><rect width="120" height="120" fill="url(#g)"/><g fill="none" stroke="rgba(255,255,255,.07)" stroke-width="2"><path d="M-10 40L40 -10M-10 80L80 -10M-10 120L120 -10M30 130L130 30M70 130L130 70"/></g><g fill="#ffffff" stroke="#ffffff" stroke-linecap="round" stroke-linejoin="round"><path d="M18 60s15-24 42-24 42 24 42 24-15 24-42 24-42-24-42-24z" stroke="none"/><circle cx="60" cy="60" r="14" fill="#0b0b0c" stroke="none"/><circle cx="60" cy="60" r="6" stroke="none"/><path d="M60 22v8M60 90v8M30 30l5 6M90 30l-5 6" stroke-width="4"/></g></svg>
