<svg xmlns="http://www.w3.org/2000/svg" viewBox="0 0 120 120"><defs><linearGradient id="g" x1="0" y1="0" x2="1" y2="1"><stop offset="0" stop-color="#d8232f"/><stop offset="1" stop-color="#0b0b0c"/></linearGradient></defs><rect width="120" height="120" fill="url(#g)"/><g fill="none" stroke="rgba(255,255,255,.07)" stroke-width="2"><path d="M-10 40L40 -10M-10 80L80 -10M-10 120L120 -10M30 130L130 30M70 130L130 70"/></g><g fill="#ffffff" stroke="#ffffff" stroke-linecap="round" stroke-linejoin="round"><path d="M60 26c-17 0-29 12-29 27 0 9 4 16 10 20v10a4 4 0 0 0 4 4h30a4 4 0 0 0 4-4V73c6-4 10-11 10-20 0-15-12-27-29-27z" stroke="none"/><circle cx="49" cy="55" r="7" fill="#0b0b0c" stroke="none"/><circle cx="71" cy="55" r="7" fill="#0b0b0c" stroke="none"/><path d="M60 64l-4 7h8z" fill="#0b0b0c" stroke="none"/><path d="M52 79v8M60 79v8M68 79v8" stroke="#0b0b0c" stroke-width="3"/></g></svg>
